<svg width="32" height="32" viewBox="0 0 32 32" fill="none" xmlns="http://www.w3.org/2000/svg">
    <!-- Background circle -->
    <circle cx="16" cy="16" r="16" fill="#030213" />

    <!-- Chain link icon -->
    <g transform="translate(8, 10)">
        <!-- Left link -->
        <path d="M3 6a3 3 0 0 1 3-3h2a3 3 0 0 1 0 6H6a3 3 0 0 1-3-3z" fill="white" opacity="0.9" />
        <!-- Right link -->
        <path d="M8 9a3 3 0 0 1 3-3h2a3 3 0 0 1 0 6h-2a3 3 0 0 1-3-3z" fill="white" opacity="0.9" />
        <!-- Connecting line -->
        <path d="M7 6l2 3" stroke="white" stroke-width="1.5" stroke-linecap="round" opacity="0.7" />
    </g>

    <!-- URL query parameter indicator (small dot) -->
    <circle cx="22" cy="10" r="1.5" fill="#ffffff" opacity="0.6" />
</svg>